<svg xmlns="http://www.w3.org/2000/svg" width="31.037" height="33.654" viewBox="0 0 31.037 33.654"><path d="M28.455,1.928H7.723A5.4,5.4,0,0,0,2.571,7.515v22.48a5.4,5.4,0,0,0,5.153,5.587H28.455a5.4,5.4,0,0,0,5.153-5.587V7.515a5.4,5.4,0,0,0-5.153-5.587ZM12.506,16.652H23.672a6.869,6.869,0,0,1,.327,2.1,6.182,6.182,0,0,1-5.91,6.409,6.182,6.182,0,0,1-5.91-6.409,6.869,6.869,0,0,1,.327-2.1Zm17.222,0V29.272a2.033,2.033,0,0,1-1.94,2.1H8.39a2.033,2.033,0,0,1-1.94-2.1V16.652H9.485a10.332,10.332,0,0,0-.215,2.1c0,5.273,3.957,9.564,8.82,9.564s8.82-4.29,8.82-9.564a10.328,10.328,0,0,0-.215-2.1Zm0-7.363a1.016,1.016,0,0,1-.97,1.052h-1.94a1.016,1.016,0,0,1-.97-1.052v-2.1a1.016,1.016,0,0,1,.97-1.052h1.94a1.016,1.016,0,0,1,.97,1.052Z" transform="translate(-2.571 -1.928)"/></svg>