<svg xmlns="http://www.w3.org/2000/svg" width="35.04" height="34" viewBox="0 0 35.04 34"><path d="M36.525,30.861l-8.3-6.85a3.762,3.762,0,0,0-2.517-1.06,12.479,12.479,0,0,0,3.143-8.273,12.949,12.949,0,0,0-13.14-12.75,12.949,12.949,0,0,0-13.14,12.75,12.949,12.949,0,0,0,13.14,12.75,13.326,13.326,0,0,0,8.527-3.05,3.541,3.541,0,0,0,1.092,2.442l7.059,8.054a3.07,3.07,0,0,0,4.388.244,2.86,2.86,0,0,0-.252-4.257ZM15.711,23.178a8.633,8.633,0,0,1-8.76-8.5,8.633,8.633,0,0,1,8.76-8.5,8.633,8.633,0,0,1,8.76,8.5,8.633,8.633,0,0,1-8.76,8.5Z" transform="translate(-2.571 -1.928)"/></svg>